IKResults
version=1
nRows=11
nColumns=40
inDegrees=yes

Units are S.I. units (second, meters, Newtons, ...)
If the header above contains a line with 'inDegrees', this indicates whether rotational values are in degrees (yes) or radians (no).

endheader
time	pelvis_tilt	pelvis_list	pelvis_rotation	pelvis_tx	pelvis_ty	pelvis_tz	hip_flexion_r	hip_adduction_r	hip_rotation_r	knee_angle_r	knee_angle_r_beta	ankle_angle_r	subtalar_angle_r	mtp_angle_r	hip_flexion_l	hip_adduction_l	hip_rotation_l	knee_angle_l	knee_angle_l_beta	ankle_angle_l	subtalar_angle_l	mtp_angle_l	lumbar_extension	lumbar_bending	lumbar_rotation	arm_flex_r	arm_add_r	arm_rot_r	elbow_flex_r	pro_sup_r	wrist_flex_r	wrist_dev_r	arm_flex_l	arm_add_l	arm_rot_l	elbow_flex_l	pro_sup_l	wrist_flex_l	wrist_dev_l
      0.00000000	     -6.79534338	      0.35528558	      4.54864483	     -2.70315792	      1.03094124	      0.24836227	      0.15141712	      1.08720452	     -5.16895217	      9.36049701	      0.16337149	     19.95765308	      4.75242855	      0.00000000	     31.66647890	     -1.89495890	     -4.76665978	     39.10626497	      0.68253308	     12.32988599	      3.78349602	      0.00000000	     -6.55676568	      4.15872636	     -3.45151976	     -4.07049703	    -13.37594248	     14.18159917	     33.10977208	     77.98927918	      0.00000000	      0.00000000	    -11.99369636	     -7.71581514	      2.04158333	     29.12041474	     72.78526799	      0.00000000	      0.00000000
      0.01000000	     -6.59406332	      0.48643547	      4.32385239	     -2.69828532	      1.03073190	      0.24819527	     -0.40231938	      0.94495756	     -5.24359673	      9.29365232	      0.16220483	     19.91241967	      4.88612063	      0.00000000	     31.77817968	     -1.56736895	     -4.97549545	     37.88849930	      0.66127906	     12.11469745	      3.91262616	      0.00000000	     -7.02376366	      4.11110930	     -3.16782734	     -3.88448294	    -13.52054577	     14.36415264	     33.07504607	     78.27681829	      0.00000000	      0.00000000	    -12.09934860	     -7.64821839	      2.65119465	     28.86970527	     72.83069518	      0.00000000	      0.00000000
      0.02000000	     -6.68554853	      0.38137375	      4.26107438	     -2.69378112	      1.02980957	      0.24836068	     -0.62097834	      1.08342513	     -5.01099971	      9.10561379	      0.15892294	     20.18320405	      5.00093709	      0.00000000	     32.37798044	     -1.41532297	     -4.91112040	     36.79300257	      0.64215904	     11.90411096	      4.01376637	      0.00000000	     -7.18189467	      4.24492770	     -3.02833410	     -3.73257835	    -13.60766368	     14.31869573	     33.19816774	     78.30478588	      0.00000000	      0.00000000	    -12.30921513	     -7.57426976	      2.82093290	     28.88796617	     72.85198038	      0.00000000	      0.00000000
      0.03000000	     -6.68077194	      0.71907140	      4.00612197	     -2.68886311	      1.02903926	      0.24836026	     -0.98910189	      0.70190179	     -5.06759513	      9.12562123	      0.15927214	     20.31981460	      5.12195663	      0.00000000	     32.61868655	     -0.82919669	     -5.03039880	     35.29441862	      0.61600381	     11.28331851	      3.60547492	      0.00000000	     -7.46920744	      3.90809677	     -2.70153588	     -3.64160106	    -13.65745841	     14.24729711	     33.35426888	     78.43704160	      0.00000000	      0.00000000	    -12.40163928	     -7.56242752	      3.53623387	     28.60619031	     72.47465636	      0.00000000	      0.00000000
      0.04000000	     -6.73934574	      0.68078952	      3.89227550	     -2.68384686	      1.02793532	      0.24849152	     -1.30082418	      0.75640246	     -5.12676830	      9.00281101	      0.15712869	     20.42667197	      5.32863530	      0.00000000	     33.04103832	     -0.62314335	     -4.88589908	     33.90989760	      0.59183936	     10.84496886	      3.71561851	      0.00000000	     -7.65561026	      3.95168721	     -2.53126394	     -3.51836917	    -13.74970608	     14.29929808	     33.49528565	     78.45920040	      0.00000000	      0.00000000	    -12.53580100	     -7.55325595	      4.04809027	     28.40781348	     72.87315735	      0.00000000	      0.00000000
      0.05000000	     -6.84442965	      0.60161691	      3.80786273	     -2.67881237	      1.02665310	      0.24858878	     -1.55534876	      0.85575492	     -5.04163673	      8.88420674	      0.15505866	     20.51057456	      5.44074759	      0.00000000	     33.53198852	     -0.43924219	     -4.61758983	     32.47075295	      0.56672155	     10.25471009	      4.04971349	      0.00000000	     -7.80182297	      4.01912658	     -2.38427814	     -3.37224432	    -13.86674716	     14.40952183	     33.67342699	     78.49776539	      0.00000000	      0.00000000	    -12.72696884	     -7.46688067	      4.44746167	     27.96594017	     73.15137959	      0.00000000	      0.00000000
      0.06000000	     -6.72997883	      0.82226779	      3.66354867	     -2.67326141	      1.02571309	      0.24856641	     -2.12775350	      0.63398041	     -4.94781106	      8.71388526	      0.15208599	     20.79370392	      5.58335238	      0.00000000	     33.61529955	      0.04726997	     -4.42832109	     30.79275328	      0.53743493	      9.40976400	      3.77321422	      0.00000000	     -8.18798530	      3.76407274	     -2.15651926	     -3.24994181	    -13.91676698	     14.48517096	     33.77503804	     78.43895038	      0.00000000	      0.00000000	    -12.77982856	     -7.53206902	      4.74780937	     27.85873202	     74.20280339	      0.00000000	      0.00000000
      0.07000000	     -6.84073828	      0.56690096	      3.55889932	     -2.66779007	      1.02422121	      0.24885568	     -2.33848173	      0.93315234	     -4.94844006	      8.68106802	      0.15151322	     20.97020076	      5.66457787	      0.00000000	     34.10693993	     -0.02060792	     -4.12332200	     29.35221389	      0.51229278	      8.77441865	      4.13453207	      0.00000000	     -8.31200411	      3.98632147	     -1.96758277	     -3.13588220	    -14.03205322	     14.55939772	     33.95985952	     78.46727949	      0.00000000	      0.00000000	    -12.96366840	     -7.44723334	      4.72553547	     27.86956581	     74.27213160	      0.00000000	      0.00000000
      0.08000000	     -6.96236610	      0.45212157	      3.49082215	     -2.66214911	      1.02269866	      0.24893075	     -2.61911319	      1.09343796	     -4.94971635	      8.57742582	      0.14970432	     21.05682622	      5.62376910	      0.00000000	     34.54279918	      0.06856020	     -3.83218663	     27.81629282	      0.48548590	      7.93829173	      4.52788703	      0.00000000	     -8.42592609	      4.05617886	     -1.82170921	     -3.03609710	    -14.12353906	     14.67152752	     34.11475019	     78.49107143	      0.00000000	      0.00000000	    -13.09622723	     -7.36525626	      4.73525023	     27.75955282	     74.34690842	      0.00000000	      0.00000000
      0.09000000	     -6.73790727	      0.75574038	      3.36538680	     -2.65555278	      1.02171114	      0.24865515	     -3.42833590	      0.77799333	     -4.83386492	      8.32344356	      0.14527150	     21.27601636	      5.69217264	      0.00000000	     34.34396438	      0.60450259	     -3.42932022	     26.01464881	      0.45404128	      6.97101847	      4.35676130	      0.00000000	     -8.88750253	      3.68502248	     -1.71008654	     -2.87283365	    -14.17596098	     14.92869391	     34.15846733	     78.50632857	      0.00000000	      0.00000000	    -13.22455158	     -7.32173290	      4.88466734	     27.46439639	     74.69099023	      0.00000000	      0.00000000
      0.10000000	     -6.89098844	      0.56520409	      3.29349106	     -2.64950994	      1.01998012	      0.24878742	     -3.70201575	      1.01893330	     -4.76909161	      8.17285834	      0.14264329	     21.45675057	      5.74677059	      0.00000000	     34.82581798	      0.56983565	     -3.09314193	     24.58019437	      0.42900532	      6.24558230	      4.83557208	      0.00000000	     -8.95471959	      3.79737818	     -1.55246290	     -2.78453444	    -14.25864673	     14.99564590	     34.33632006	     78.52070846	      0.00000000	      0.00000000	    -13.36519525	     -7.24311145	      4.87276652	     27.31780127	     74.73210471	      0.00000000	      0.00000000
